<svg width="24" height="24" viewBox="0 0 24 24" fill="none" xmlns="http://www.w3.org/2000/svg">
<path d="M19 3H5C3.89 3 3 3.9 3 5V19C3 20.1 3.89 21 5 21H19C20.11 21 21 20.1 21 19V5C21 3.9 20.11 3 19 3ZM10 17L5 12L6.41 10.59L10 14.17L17.59 6.58L19 8L10 17Z" fill="url(#paint0_linear_633_7596)"/>
<path d="M10 17L5 12L6.41 10.59L10 14.17L17.59 6.58L19 8L10 17Z" fill="white"/>
<defs>
<linearGradient id="paint0_linear_633_7596" x1="2.25704" y1="18.6244" x2="15.8875" y2="2.27116" gradientUnits="userSpaceOnUse">
<stop stop-color="#0081BC"/>
<stop offset="1" stop-color="#0FCCDA"/>
</linearGradient>
</defs>
</svg>
